<svg xmlns="http://www.w3.org/2000/svg" viewBox="0 0 420 460" width="420" height="460">
  <rect width="420" height="460" fill="#17693C"/>

  <rect x="15" y="15" width="390" height="430" fill="#17693C"/>
  <circle cx="35" cy="15" r="11" fill="#17693C"/>
  <circle cx="35" cy="445" r="11" fill="#17693C"/>
  <circle cx="61" cy="15" r="11" fill="#17693C"/>
  <circle cx="61" cy="445" r="11" fill="#17693C"/>
  <circle cx="87" cy="15" r="11" fill="#17693C"/>
  <circle cx="87" cy="445" r="11" fill="#17693C"/>
  <circle cx="113" cy="15" r="11" fill="#17693C"/>
  <circle cx="113" cy="445" r="11" fill="#17693C"/>
  <circle cx="139" cy="15" r="11" fill="#17693C"/>
  <circle cx="139" cy="445" r="11" fill="#17693C"/>
  <circle cx="165" cy="15" r="11" fill="#17693C"/>
  <circle cx="165" cy="445" r="11" fill="#17693C"/>
  <circle cx="191" cy="15" r="11" fill="#17693C"/>
  <circle cx="191" cy="445" r="11" fill="#17693C"/>
  <circle cx="217" cy="15" r="11" fill="#17693C"/>
  <circle cx="217" cy="445" r="11" fill="#17693C"/>
  <circle cx="243" cy="15" r="11" fill="#17693C"/>
  <circle cx="243" cy="445" r="11" fill="#17693C"/>
  <circle cx="269" cy="15" r="11" fill="#17693C"/>
  <circle cx="269" cy="445" r="11" fill="#17693C"/>
  <circle cx="295" cy="15" r="11" fill="#17693C"/>
  <circle cx="295" cy="445" r="11" fill="#17693C"/>
  <circle cx="321" cy="15" r="11" fill="#17693C"/>
  <circle cx="321" cy="445" r="11" fill="#17693C"/>
  <circle cx="347" cy="15" r="11" fill="#17693C"/>
  <circle cx="347" cy="445" r="11" fill="#17693C"/>
  <circle cx="373" cy="15" r="11" fill="#17693C"/>
  <circle cx="373" cy="445" r="11" fill="#17693C"/>
  <circle cx="15" cy="35" r="11" fill="#17693C"/>
  <circle cx="405" cy="35" r="11" fill="#17693C"/>
  <circle cx="15" cy="61" r="11" fill="#17693C"/>
  <circle cx="405" cy="61" r="11" fill="#17693C"/>
  <circle cx="15" cy="87" r="11" fill="#17693C"/>
  <circle cx="405" cy="87" r="11" fill="#17693C"/>
  <circle cx="15" cy="113" r="11" fill="#17693C"/>
  <circle cx="405" cy="113" r="11" fill="#17693C"/>
  <circle cx="15" cy="139" r="11" fill="#17693C"/>
  <circle cx="405" cy="139" r="11" fill="#17693C"/>
  <circle cx="15" cy="165" r="11" fill="#17693C"/>
  <circle cx="405" cy="165" r="11" fill="#17693C"/>
  <circle cx="15" cy="191" r="11" fill="#17693C"/>
  <circle cx="405" cy="191" r="11" fill="#17693C"/>
  <circle cx="15" cy="217" r="11" fill="#17693C"/>
  <circle cx="405" cy="217" r="11" fill="#17693C"/>
  <circle cx="15" cy="243" r="11" fill="#17693C"/>
  <circle cx="405" cy="243" r="11" fill="#17693C"/>
  <circle cx="15" cy="269" r="11" fill="#17693C"/>
  <circle cx="405" cy="269" r="11" fill="#17693C"/>
  <circle cx="15" cy="295" r="11" fill="#17693C"/>
  <circle cx="405" cy="295" r="11" fill="#17693C"/>
  <circle cx="15" cy="321" r="11" fill="#17693C"/>
  <circle cx="405" cy="321" r="11" fill="#17693C"/>
  <circle cx="15" cy="347" r="11" fill="#17693C"/>
  <circle cx="405" cy="347" r="11" fill="#17693C"/>
  <circle cx="15" cy="373" r="11" fill="#17693C"/>
  <circle cx="405" cy="373" r="11" fill="#17693C"/>
  <circle cx="15" cy="399" r="11" fill="#17693C"/>
  <circle cx="405" cy="399" r="11" fill="#17693C"/>
  <circle cx="15" cy="425" r="11" fill="#17693C"/>
  <circle cx="405" cy="425" r="11" fill="#17693C"/>
  <rect x="37" y="37" width="346" height="386"
    fill="none" stroke="#F3E7D0" stroke-width="6"/>
  
  <circle cx="210" cy="190" r="76" fill="#17693C" stroke="#F3E7D0" stroke-width="25.840000000000003"/>
  <path d="M 210,142.88 L 255.6,176.32 L 238.12,228
    L 181.88,228 L 164.4,176.32 Z" fill="#F3E7D0"/>
  <text x="210" y="330" text-anchor="middle" font-family='"Oswald","Big Shoulders Display","Arial Narrow",Impact,sans-serif' font-size="62"
    font-weight="700" fill="#F3E7D0">Fut Gibi</text>
  <text x="210" y="382" text-anchor="middle" font-family='"Oswald","Big Shoulders Display","Arial Narrow",Impact,sans-serif' font-size="21"
    font-weight="700" letter-spacing="2" fill="#F3E7D0">FUTEBOL EM QUADRINHOS</text>
  <text x="359" y="89" text-anchor="middle" font-family='"Oswald","Big Shoulders Display","Arial Narrow",Impact,sans-serif'
    font-size="44" font-weight="700" fill="#F3E7D0">12</text>
</svg>
