<svg xmlns="http://www.w3.org/2000/svg" viewBox="0 0 400 400" width="400" height="400">
  <rect width="400" height="400" fill="#EDE0C6"/>
  <path d="M 160,78 L 84,66 C 64,76 50,82 44,96 L 70,176 C 84,166 118,132 72,142 C 70,153 74,272 74,340 L 326,340 C 326,272 330,153 328,142 C 282,132 316,166 330,176 L 356,96 C 350,82 336,76 316,66 L 240,78 L 200,112 L 240,78 Z" fill="none" stroke="#141414" stroke-width="13" stroke-linejoin="round"/>
  <g transform="translate(200,236) scale(0.9) translate(-221,-216)"
    fill="#141414"><path d="M 150,168 L 176,152 L 190,152 L 190,262 L 208,262 L 208,282 L 152,282 L 152,262 L 172,262 L 172,178 L 156,187 Z"/><path d="M 216,186 C 216,162 234,151 254,151 C 276,151 292,164 292,187 C 292,209 276,221 257,238 L 232,261 L 293,261 L 293,282 L 215,282 L 215,262 C 236,242 248,233 261,220 C 269,211 272,200 272,188 C 272,175 265,170 254,170 C 243,170 236,176 236,190 Z"/></g></svg>