<svg xmlns="http://www.w3.org/2000/svg" viewBox="0 0 400 400" width="400" height="400">
  <rect width="400" height="400" fill="#EDE0C6"/>
  <path d="M 166,78 L 100,66 C 80,76 68,90 62,104 L 88,168 C 102,158 118,132 72,142 C 78,162.9 82,289.6 82,362 L 318,362 C 318,289.6 322,162.9 328,142 C 282,132 298,158 312,168 L 338,104 C 332,90 320,76 300,66 L 234,78 L 200,104 L 234,78 Z" fill="#141414"/><g transform="translate(200,236) scale(0.9) translate(-221,-216)"
    fill="#F3E7D0"><path d="M 150,168 L 176,152 L 190,152 L 190,262 L 208,262 L 208,282 L 152,282 L 152,262 L 172,262 L 172,178 L 156,187 Z"/><path d="M 216,186 C 216,162 234,151 254,151 C 276,151 292,164 292,187 C 292,209 276,221 257,238 L 232,261 L 293,261 L 293,282 L 215,282 L 215,262 C 236,242 248,233 261,220 C 269,211 272,200 272,188 C 272,175 265,170 254,170 C 243,170 236,176 236,190 Z"/></g></svg>